<svg width="16" height="16" viewBox="0 0 16 16" fill="none" xmlns="http://www.w3.org/2000/svg">
<path d="M8 14.6667C4.32666 14.6667 1.33333 11.6733 1.33333 8C1.33333 4.32666 4.32666 1.33333 8 1.33333C11.6733 1.33333 14.6667 4.32666 14.6667 8C14.6667 11.6733 11.6733 14.6667 8 14.6667ZM8 2.66666C5.06 2.66666 2.66666 5.06 2.66666 8C2.66666 10.94 5.06 13.3333 8 13.3333C10.94 13.3333 13.3333 10.94 13.3333 8C13.3333 5.06 10.94 2.66666 8 2.66666ZM8 4.66666C7.63333 4.66666 7.33333 4.96666 7.33333 5.33333C7.33333 5.7 7.63333 6 8 6C8.36666 6 8.66666 5.7 8.66666 5.33333C8.66666 4.96666 8.36666 4.66666 8 4.66666ZM8.66666 10.6667V8C8.66666 7.63333 8.36666 7.33333 8 7.33333C7.63333 7.33333 7.33333 7.63333 7.33333 8V10.6667C7.33333 11.0333 7.63333 11.3333 8 11.3333C8.36666 11.3333 8.66666 11.0333 8.66666 10.6667Z" fill="#222B55"/>
</svg>
