<svg width="16" height="16" viewBox="0 0 16 16" fill="none" xmlns="http://www.w3.org/2000/svg">
<path d="M8.94118 8L11.8048 5.13642C12.0651 4.87609 12.0651 4.45557 11.8048 4.19524C11.5444 3.93492 11.1239 3.93492 10.8636 4.19524L8 7.05882L5.13642 4.19524C4.8761 3.93492 4.45557 3.93492 4.19524 4.19524C3.93492 4.45557 3.93492 4.87609 4.19524 5.13642L7.05882 8L4.19524 10.8636C3.93492 11.1239 3.93492 11.5444 4.19524 11.8048C4.45557 12.0651 4.8761 12.0651 5.13642 11.8048L8 8.94118L10.8636 11.8048C11.1239 12.0651 11.5444 12.0651 11.8048 11.8048C12.0651 11.5444 12.0651 11.1239 11.8048 10.8636L8.94118 8Z" fill="#415DE8"/>
</svg>
